<svg width="148" height="117" viewBox="0 0 148 117" fill="none" xmlns="http://www.w3.org/2000/svg">
<g clip-path="url(#clip0_279_4560)">
<path d="M35.5321 63.4353C34.3509 57.0907 36.2106 49.8726 41.3793 46.0322C41.0864 53.045 43.2745 59.9358 47.5565 65.4853C49.2156 67.6195 51.2823 69.8199 51.2181 72.5261C51.1782 74.2099 50.2708 75.7786 49.0751 76.9604C47.8793 78.1422 46.4063 78.9942 44.9509 79.833L44.7243 80.1867C40.458 75.357 36.7133 69.7798 35.5321 63.4353Z" fill="#F0F0F0"/>
<path d="M41.4733 46.1296C39.3017 51.0073 38.7167 56.4476 39.8013 61.6779C40.0149 62.8081 40.4047 63.8973 40.9562 64.9057C41.5251 65.8705 42.3411 66.6648 43.3193 67.2061C44.2213 67.7292 45.2043 68.1594 45.9639 68.8934C46.3472 69.275 46.6458 69.7335 46.8401 70.2389C47.0344 70.7444 47.1201 71.2854 47.0914 71.8264C47.0551 73.1763 46.5376 74.4326 45.989 75.6435C45.3798 76.9879 44.7259 78.3747 44.7654 79.8863C44.7702 80.0694 44.4868 80.0662 44.482 79.8833C44.4133 77.2535 46.3077 75.1414 46.7298 72.618C46.9268 71.4405 46.7714 70.1963 45.9465 69.2836C45.2253 68.4855 44.212 68.0409 43.2941 67.5192C42.3321 67.0052 41.5101 66.2626 40.9 65.3563C40.299 64.3794 39.8681 63.307 39.6257 62.1851C39.0397 59.6679 38.8518 57.0738 39.0688 54.4981C39.3001 51.5569 40.0311 48.6772 41.23 45.9835C41.3043 45.8168 41.5471 45.964 41.4733 46.1296Z" fill="white"/>
<path d="M39.3532 60.0147C38.4541 60.0782 37.5618 59.8189 36.8357 59.2831C36.1095 58.7473 35.5968 57.9698 35.389 57.0896C35.3476 56.9114 35.6216 56.8384 35.6631 57.0169C35.8551 57.8369 36.3328 58.561 37.01 59.0586C37.6872 59.5561 38.5193 59.7943 39.3562 59.7302C39.538 59.7165 39.534 60.001 39.3532 60.0147Z" fill="white"/>
<path d="M42.8272 67.0015C44.0478 65.6164 44.7032 63.8204 44.6629 61.9717C44.6588 61.7886 44.9422 61.7918 44.9464 61.9747C44.9847 63.8986 44.2988 65.7662 43.0256 67.2048C42.9041 67.3418 42.7064 67.1378 42.8272 67.0015Z" fill="white"/>
<path d="M39.6325 51.7339C39.9854 51.7821 40.3448 51.7415 40.6783 51.6159C41.0118 51.4902 41.309 51.2834 41.5431 51.014C41.6628 50.8755 41.8603 51.0796 41.7414 51.2172C41.4813 51.5137 41.1529 51.7417 40.7847 51.8813C40.4166 52.021 40.0199 52.068 39.6295 52.0184C39.5923 52.0168 39.5571 52.001 39.5311 51.9743C39.505 51.9476 39.4901 51.912 39.4893 51.8746C39.4898 51.837 39.5052 51.8011 39.532 51.7747C39.5588 51.7484 39.5949 51.7337 39.6325 51.7339Z" fill="white"/>
<path d="M62.5167 51.2805C62.4444 51.3691 62.3721 51.4578 62.3005 51.5487C61.335 52.7453 60.4681 54.0186 59.7081 55.356C59.6477 55.4585 59.588 55.5633 59.5307 55.6673C57.7339 58.9091 56.5525 62.4576 56.0464 66.1323C55.8464 67.5947 55.7575 69.0703 55.7806 70.5463C55.8125 72.5846 56.0087 74.7922 55.3862 76.6669C55.3234 76.8633 55.2486 77.0555 55.1621 77.2425L45.1719 80.437C45.1455 80.4328 45.1198 80.431 45.0934 80.4268L44.7003 80.5727C44.6938 80.4967 44.6887 80.4176 44.6822 80.3416C44.6783 80.2975 44.6766 80.2527 44.6726 80.2086C44.6707 80.179 44.6689 80.1493 44.6654 80.1227C44.6648 80.1129 44.6642 80.103 44.6642 80.0954C44.6608 80.0688 44.6605 80.0437 44.6578 80.0193C44.628 79.5778 44.6006 79.1355 44.5777 78.6918C44.577 78.6895 44.577 78.6895 44.5785 78.6865C44.407 75.3069 44.5152 71.8832 45.1377 68.5849C45.1564 68.4856 45.1744 68.3841 45.1977 68.2835C45.4865 66.7983 45.8958 65.3392 46.4214 63.921C46.7117 63.1453 47.041 62.3849 47.4079 61.6426C48.3597 59.7266 49.6059 57.9727 51.1007 56.4453C54.0811 53.4009 57.9984 51.347 62.1959 51.2823C62.3033 51.2807 62.4086 51.2798 62.5167 51.2805Z" fill="#F0F0F0"/>
<path d="M62.5343 51.4152C57.8744 53.9976 54.1436 57.9879 51.872 62.8194C51.3646 63.8508 51.0223 64.956 50.8578 66.0944C50.7332 67.2085 50.9082 68.3358 51.3646 69.3591C51.771 70.3218 52.2978 71.2593 52.4639 72.3043C52.5411 72.8405 52.5044 73.3871 52.3563 73.9081C52.2082 74.429 51.9521 74.9128 51.6047 75.3274C50.7658 76.3833 49.599 77.0736 48.4346 77.709C47.1417 78.4144 45.7876 79.1266 44.9124 80.3573C44.8063 80.5064 44.582 80.3326 44.6879 80.1837C46.2106 78.0424 48.9902 77.5007 50.8411 75.741C51.7047 74.9198 52.327 73.8325 52.216 72.6053C52.1189 71.5322 51.5765 70.565 51.1566 69.5939C50.6968 68.6022 50.486 67.5126 50.5425 66.4203C50.6488 65.2772 50.948 64.1605 51.4275 63.1182C52.4698 60.7543 53.8758 58.5696 55.5943 56.644C57.5434 54.4355 59.8546 52.5779 62.4278 51.1516C62.5871 51.0634 62.6926 51.3276 62.5343 51.4152Z" fill="white"/>
<path d="M52.5124 61.2201C51.7565 60.7275 51.1996 59.9813 50.9412 59.1147C50.6828 58.2481 50.7398 57.3176 51.102 56.4892C51.1758 56.3219 51.4384 56.4292 51.3645 56.5968C51.0258 57.3675 50.9728 58.2343 51.215 59.0408C51.4573 59.8473 51.9788 60.5403 52.6854 60.9947C52.8389 61.0937 52.665 61.3184 52.5124 61.2201Z" fill="white"/>
<path d="M51.0947 68.8982C52.9002 68.5297 54.5009 67.4917 55.5778 65.9914C55.6843 65.8426 55.9087 66.0164 55.8023 66.165C54.6788 67.7242 53.0108 68.801 51.1311 69.1803C50.9519 69.2163 50.9165 68.934 51.0947 68.8982Z" fill="white"/>
<path d="M57.7025 54.7773C57.9554 55.0291 58.2667 55.2139 58.6083 55.315C58.95 55.4162 59.3114 55.4306 59.6599 55.357C59.8386 55.3187 59.8738 55.6011 59.6964 55.6391C59.3108 55.7187 58.9118 55.7022 58.5341 55.5913C58.1563 55.4803 57.8114 55.2782 57.5295 55.0027C57.5007 54.9789 57.4821 54.9451 57.4773 54.908C57.4725 54.871 57.482 54.8335 57.5037 54.8032C57.5268 54.7735 57.5606 54.7541 57.5978 54.7492C57.635 54.7444 57.6727 54.7545 57.7025 54.7773Z" fill="white"/>
<path d="M78.209 16.5858C78.2424 16.7334 78.2642 16.8835 78.2742 17.0346L89.9874 23.8164L92.8345 22.1715L95.8697 26.1593L91.1115 29.5629C90.7271 29.8379 90.2642 29.9803 89.7923 29.9687C89.3204 29.9572 88.8649 29.7923 88.4943 29.4989L76.4159 19.9357C75.8708 20.1382 75.2772 20.1694 74.7141 20.025C74.1509 19.8807 73.6449 19.5677 73.2633 19.1277C72.8817 18.6877 72.6426 18.1415 72.5779 17.5617C72.5131 16.982 72.6258 16.3963 72.9008 15.8824C73.1759 15.3685 73.6003 14.9508 74.1177 14.6849C74.635 14.419 75.2208 14.3175 75.797 14.3939C76.3732 14.4702 76.9127 14.7208 77.3435 15.1124C77.7744 15.5039 78.0762 16.0179 78.209 16.5858Z" fill="#FFB6B6"/>
<path d="M90.1503 23.0681C90.1875 22.8951 90.2614 22.7322 90.367 22.5905C90.4726 22.4488 90.6074 22.3316 90.7623 22.247L96.1701 19.2899C96.8902 18.7444 97.7965 18.5078 98.6902 18.6319C99.584 18.7561 100.392 19.2309 100.938 19.9523C101.483 20.6736 101.721 21.5826 101.6 22.4798C101.478 23.3771 101.007 24.1894 100.29 24.7387L95.9557 29.1576C95.832 29.2837 95.6827 29.3816 95.5179 29.4446C95.3531 29.5075 95.1767 29.5341 95.0008 29.5225C94.8248 29.5109 94.6535 29.4613 94.4983 29.3773C94.3432 29.2932 94.2079 29.1765 94.1017 29.0352L90.37 24.0697C90.2638 23.9284 90.1891 23.7658 90.1512 23.593C90.1133 23.4201 90.113 23.2411 90.1503 23.0681Z" fill="#3F3D56"/>
<path d="M99.8115 5.87627C100.59 3.38761 102.359 1.1051 104.806 0.263796C107.253 -0.577504 110.836 0.704071 112.676 2.54418C116.041 5.91009 116.862 17.4732 114.55 21.1273C114.09 21.1029 112.504 21.0848 112.038 21.0673L111.38 18.8649V21.0456C107.747 20.9329 103.965 21.0035 100.181 21.0765C99.8414 18.4893 99.0334 8.36493 99.8115 5.87627Z" fill="#2F2E41"/>
<path d="M98.77 110.337H95.4566L93.8804 97.5098L98.7708 97.51L98.77 110.337Z" fill="#FFB6B6"/>
<path d="M127.777 108.27L124.571 109.108L119.821 97.0951L124.554 95.8574L127.777 108.27Z" fill="#FFB6B6"/>
<path d="M109.517 31.5551L110.267 33.5142L110.117 35.4733L95.4233 40.5812L96.1525 32.0072L97.8041 30.0479L109.517 31.5551Z" fill="#FFB6B6"/>
<path d="M104.871 13.9248C107.769 13.9248 110.119 11.5667 110.119 8.65772C110.119 5.74878 107.769 3.39062 104.871 3.39062C101.972 3.39062 99.6226 5.74878 99.6226 8.65772C99.6226 11.5667 101.972 13.9248 104.871 13.9248Z" fill="#FFB7B7"/>
<path d="M101.264 1.79896C102.273 1.18198 103.428 0.848231 104.609 0.832606C105.79 0.816982 106.953 1.12005 107.977 1.71014C109.002 2.30022 109.849 3.15564 110.431 4.18695C111.013 5.21826 111.309 6.38758 111.286 7.57265C108.426 8.30647 105.377 8.61341 102.146 7.74939L101.408 5.93547L100.972 7.75073C99.9841 8.44849 99.0301 8.44723 98.1106 7.74696C98.0716 6.56523 98.3424 5.39393 98.8958 4.35015C99.4493 3.30636 100.266 2.42665 101.264 1.79896Z" fill="#2F2E41"/>
<path d="M100.253 116.651H97.9015L97.4818 114.424L96.407 116.651H90.1709C89.872 116.651 89.5809 116.556 89.3401 116.378C89.0994 116.2 88.9215 115.95 88.8325 115.663C88.7436 115.377 88.7482 115.069 88.8457 114.786C88.9432 114.502 89.1284 114.257 89.3744 114.087L94.3543 110.635V108.383L99.5923 108.697L100.253 116.651Z" fill="#2F2E41"/>
<path d="M131.088 113.928L128.813 114.523L127.847 112.474L127.367 114.901L121.333 116.48C121.043 116.556 120.738 116.537 120.46 116.426C120.182 116.315 119.947 116.117 119.789 115.863C119.631 115.608 119.558 115.309 119.581 115.01C119.604 114.711 119.722 114.427 119.917 114.2L123.869 109.599L123.303 107.42L128.45 106.397L131.088 113.928Z" fill="#2F2E41"/>
<path d="M127.37 100.203L117.658 80.1682L114.609 55.7836C116.711 51.8653 112.807 43.8924 112.807 43.8924V40.5449L97.6831 43.4084C94.5898 51.8758 93.0898 60.846 93.2593 69.8629L93.8687 102.277H93.6775C93.3603 102.277 93.0561 102.403 92.8318 102.629C92.6075 102.854 92.4814 103.159 92.4814 103.477C92.4814 103.796 92.6075 104.101 92.8318 104.326C93.0561 104.551 93.3603 104.678 93.6775 104.678H99.6581C99.9753 104.678 100.28 104.551 100.504 104.326C100.728 104.101 100.854 103.796 100.854 103.477C100.854 103.159 100.728 102.854 100.504 102.629C100.28 102.403 99.9753 102.277 99.6581 102.277H99.5039L103.797 61.0405L108.789 81.3897L120.853 100.126C120.545 100.15 120.259 100.293 120.054 100.524C119.849 100.756 119.741 101.058 119.754 101.368C119.766 101.677 119.897 101.97 120.12 102.184C120.343 102.398 120.64 102.518 120.949 102.517H126.929C127.207 102.517 127.477 102.42 127.691 102.242C127.906 102.065 128.052 101.817 128.104 101.543C128.156 101.269 128.112 100.985 127.978 100.74C127.844 100.496 127.629 100.306 127.37 100.203Z" fill="#2F2E41"/>
<path d="M114.174 45.9444C114.124 45.7485 114.014 45.5734 113.859 45.4442C113.704 45.3151 113.512 45.2385 113.312 45.2254C113.112 42.938 111.795 28.2684 111.745 27.838L111.743 27.8198L111.362 19.643C111.348 19.3461 111.225 19.0646 111.018 18.8525C110.81 18.6403 110.532 18.5123 110.237 18.4929L108.222 18.3608C108.195 18.3598 108.168 18.3482 108.149 18.3282C108.13 18.3083 108.119 18.2816 108.119 18.2539C108.119 18.0306 108.075 17.8095 107.99 17.6032C107.905 17.397 107.78 17.2096 107.623 17.0517C107.466 16.8938 107.279 16.7686 107.073 16.6831C106.868 16.5977 106.648 16.5537 106.425 16.5537H100.461C100.075 16.5539 99.7018 16.6955 99.4122 16.9521C99.1226 17.2086 98.9362 17.5625 98.8881 17.9471C98.8854 17.9736 98.8729 17.9981 98.8531 18.0158C98.8332 18.0334 98.8074 18.0428 98.7809 18.0422L98.7802 18.0422C98.1025 18.0282 97.4423 18.2585 96.9193 18.6912C96.3963 19.124 96.0452 19.7306 95.9298 20.4009C95.1144 25.1621 93.4804 35.9681 94.2883 41.9756C94.5695 44.0669 94.4417 47.2122 94.3353 48.962C94.3248 49.1311 94.3475 49.3007 94.4024 49.4609C94.4572 49.6211 94.543 49.769 94.6548 49.8959C94.417 49.9647 94.2151 50.1235 94.0916 50.3388C93.9682 50.5542 93.9328 50.8092 93.9931 51.0501C94.0551 51.2971 94.2124 51.5092 94.4302 51.6398C94.6481 51.7704 94.9087 51.8088 95.1548 51.7466L113.48 47.1103C113.726 47.0481 113.937 46.8903 114.068 46.6716C114.198 46.4529 114.236 46.1913 114.174 45.9444Z" fill="#3F3D56"/>
<path d="M83.887 80.3204C83.8836 79.7834 83.6908 79.2651 83.3429 78.8572C82.995 78.4493 82.5144 78.1782 81.9863 78.092L49.4966 72.7375C49.1851 72.6858 48.8662 72.7 48.5605 72.7793L40.9463 74.7552L36.5775 75.8903L28.5152 77.9819C28.0285 78.1088 27.5975 78.3942 27.2898 78.7934C26.9821 79.1925 26.8151 79.6829 26.8149 80.1875V114.355C26.8174 114.876 26.9967 115.381 27.3234 115.785C27.65 116.19 28.1044 116.471 28.6116 116.582L61.7046 116.206C61.86 116.239 62.0185 116.256 62.1774 116.255C62.409 116.255 62.6392 116.22 62.8602 116.151L82.5215 116.642C82.9855 116.496 83.3905 116.205 83.6763 115.81C83.9621 115.415 84.1136 114.939 84.1083 114.451L83.887 80.3204Z" fill="white"/>
<path d="M83.887 80.3204C83.8836 79.7834 83.6908 79.2651 83.3429 78.8572C82.995 78.4493 82.5144 78.1782 81.9863 78.092L49.4966 72.7375C49.1851 72.6858 48.8662 72.7 48.5605 72.7793L40.9463 74.7552L36.5775 75.8903L28.5152 77.9819C28.0285 78.1088 27.5975 78.3942 27.2898 78.7934C26.9821 79.1925 26.8151 79.6829 26.8149 80.1875V114.355C26.8174 114.876 26.9967 115.381 27.3234 115.785C27.65 116.19 28.1044 116.471 28.6116 116.582L61.7046 116.206C61.86 116.239 62.0185 116.256 62.1774 116.255C62.409 116.255 62.6392 116.22 62.8602 116.151L82.5215 116.642C82.9855 116.496 83.3905 116.205 83.6763 115.81C83.9621 115.415 84.1136 114.939 84.1083 114.451L83.887 80.3204ZM82.3513 116.099L62.6899 116.568C62.4095 116.656 62.1113 116.67 61.8237 116.61L28.7289 116.026C28.3486 115.942 28.008 115.732 27.7632 115.428C27.5184 115.124 27.384 114.746 27.3823 114.355V80.1875C27.3826 79.8377 27.4897 79.4964 27.6892 79.2097C27.8887 78.9229 28.1711 78.7044 28.4982 78.5836C28.5501 78.5641 28.6031 78.5476 28.657 78.5343L37.1865 76.3211L42.2305 75.0114L48.7023 73.3316C48.8411 73.2945 48.9842 73.276 49.1278 73.2766C49.2203 73.2766 49.3127 73.2842 49.4039 73.2994L81.8936 78.6539C82.1551 78.6969 82.4029 78.8005 82.6176 78.9563C82.8323 79.1121 83.0079 79.316 83.1305 79.5517C83.2532 79.7906 83.318 80.0553 83.3196 80.3242L83.5409 114.455C83.545 114.821 83.4315 115.178 83.2172 115.474C83.0029 115.771 82.6993 115.989 82.3513 116.099Z" fill="#CCCCCC"/>
<path d="M83.1305 79.5518C83.1084 79.5663 83.0842 79.5772 83.0587 79.584L73.5022 82.1768L70.5273 82.9835L62.0659 85.2783C62.0417 85.2843 62.017 85.2875 61.9921 85.2878C61.975 85.2875 61.958 85.2862 61.941 85.284L27.823 79.0412L27.7095 79.0203C27.6356 79.0064 27.5702 78.9636 27.5276 78.9014C27.485 78.8392 27.4687 78.7627 27.4822 78.6884C27.4957 78.6142 27.5379 78.5483 27.5996 78.5052C27.6614 78.4621 27.7376 78.4453 27.8117 78.4585L28.4982 78.5837L61.9807 84.7108L69.2734 82.733L73.3528 81.6264L82.7617 79.0735L82.9111 79.0336C82.9757 79.0165 83.0442 79.0227 83.1047 79.0512C83.1652 79.0796 83.2139 79.1285 83.2421 79.1892C83.2494 79.2038 83.2551 79.219 83.2591 79.2348C83.2747 79.2945 83.2706 79.3576 83.2474 79.4148C83.2242 79.4719 83.1832 79.52 83.1305 79.5518Z" fill="#CCCCCC"/>
<path d="M62.2759 116.322C62.1204 116.322 61.9937 116.196 61.9922 117L61.7085 85.9664C61.707 84.8489 61.833 84.7202 61.9896 84.7188H61.9922C62.1477 84.7188 62.2744 84.8444 62.2759 85.9612L62.5596 116.995C62.561 116.192 62.4351 116.32 62.2785 116.322H62.2759Z" fill="#CCCCCC"/>
<path d="M73.5827 116.682L70.5273 116.715L69.2734 82.7335L37.2793 76.3446C37.2479 76.339 37.217 76.3314 37.1866 76.3218C36.9409 76.2515 36.7261 76.0996 36.5776 75.8909L40.9464 74.7559L42.2306 75.0121L72.5888 81.0727C72.7484 81.1043 72.8994 81.1702 73.0313 81.2659C73.1631 81.3616 73.2728 81.4847 73.3529 81.6269C73.4474 81.7921 73.5808 116.485 73.5827 116.682Z" fill="#CCCCCC"/>
<path d="M98.0555 18.1236C98.0529 17.7189 97.9077 17.3282 97.6455 17.0208C97.3832 16.7134 97.021 16.5091 96.623 16.4442L72.1371 12.4087C71.9023 12.3697 71.662 12.3804 71.4315 12.4402L65.6931 13.9294L62.4006 14.7848L56.3243 16.3612C55.9575 16.4568 55.6327 16.6719 55.4008 16.9727C55.1689 17.2735 55.0431 17.6431 55.043 18.0234V38.1648C55.0448 38.5574 55.18 38.9376 55.4261 39.2427C55.6723 39.5478 56.0148 39.7594 56.397 39.8428L81.3377 45.1686C81.4548 45.1938 81.5742 45.2063 81.694 45.2058C81.8685 45.2061 82.0421 45.1796 82.2086 45.1271L97.0264 40.4308C97.3761 40.3212 97.6813 40.1015 97.8967 39.8041C98.1122 39.5067 98.2263 39.1476 98.2223 38.78L98.0555 18.1236Z" fill="white"/>
<path d="M71.8598 13.8887C71.8419 13.8887 71.8241 13.891 71.8069 13.8955L56.6996 17.8165C56.6538 17.8284 56.6132 17.8553 56.5842 17.8928C56.5553 17.9304 56.5396 17.9765 56.5396 18.024V38.1651C56.5397 38.2141 56.5566 38.2617 56.5873 38.2998C56.6181 38.3379 56.6608 38.3644 56.7086 38.3748L81.6492 43.7005C81.6854 43.7081 81.7228 43.7062 81.7581 43.6951L96.5762 38.9989C96.6199 38.9853 96.6579 38.9578 96.6848 38.9207C96.7117 38.8835 96.7259 38.8386 96.7253 38.7928L96.5592 18.1364C96.5589 18.0859 96.5407 18.0371 96.5079 17.9987C96.4752 17.9604 96.4299 17.9349 96.3802 17.9268L71.8943 13.8915C71.8829 13.8896 71.8714 13.8887 71.8598 13.8887Z" fill="white"/>
<path d="M98.0555 18.1236C98.0529 17.7189 97.9077 17.3282 97.6455 17.0208C97.3832 16.7134 97.021 16.5091 96.623 16.4442L72.1371 12.4087C71.9023 12.3697 71.662 12.3804 71.4315 12.4402L65.6931 13.9294L62.4006 14.7848L56.3243 16.3612C55.9575 16.4568 55.6327 16.6719 55.4008 16.9727C55.1689 17.2735 55.0431 17.6431 55.043 18.0234V38.1648C55.0448 38.5574 55.18 38.9376 55.4261 39.2427C55.6723 39.5478 56.0148 39.7594 56.397 39.8428L81.3377 45.1686C81.4548 45.1938 81.5742 45.2063 81.694 45.2058C81.8685 45.2061 82.0421 45.1796 82.2086 45.1271L97.0264 40.4308C97.3761 40.3212 97.6813 40.1015 97.8967 39.8041C98.1122 39.5067 98.2263 39.1476 98.2223 38.78L98.0555 18.1236ZM96.8981 40.0216L82.0803 44.718C81.8689 44.784 81.6442 44.7949 81.4275 44.7494L56.4854 39.4237C56.1988 39.361 55.9421 39.2021 55.7576 38.9732C55.5731 38.7444 55.4719 38.4592 55.4706 38.1649V18.0234C55.4708 17.7598 55.5515 17.5026 55.7018 17.2865C55.8522 17.0703 56.065 16.9057 56.3115 16.8147C56.3507 16.7999 56.3906 16.7875 56.4312 16.7775L62.8595 15.1095L66.6609 14.1225L71.5384 12.8565C71.643 12.8285 71.7509 12.8145 71.8592 12.815C71.9289 12.815 71.9985 12.8207 72.0672 12.8322L96.5532 16.8676C96.7502 16.9001 96.937 16.9781 97.0988 17.0955C97.2606 17.213 97.393 17.3666 97.4854 17.5442C97.5779 17.7243 97.6267 17.9238 97.6279 18.1264L97.7947 38.7828C97.7977 39.0586 97.7122 39.328 97.5507 39.5512C97.3892 39.7743 97.1604 39.9393 96.8981 40.0216Z" fill="#3F3D56"/>
<path d="M97.4857 17.5451C97.4691 17.556 97.4508 17.5643 97.4316 17.5694L90.2293 19.5234L87.9872 20.1314L81.6103 21.8609C81.5921 21.8654 81.5734 21.8678 81.5547 21.868C81.5418 21.8678 81.529 21.8668 81.5162 21.8652L55.803 17.1603L55.7175 17.1445C55.6618 17.1341 55.6124 17.1019 55.5803 17.055C55.5481 17.0081 55.5358 16.9503 55.546 16.8944C55.5561 16.8384 55.588 16.7887 55.6346 16.7562C55.6811 16.7238 55.7387 16.7111 55.7945 16.7211L56.3119 16.8155L81.5461 21.4332L87.0422 19.9426L90.1167 19.1086L97.2078 17.1846L97.3204 17.1545C97.3691 17.1417 97.4207 17.1463 97.4663 17.1678C97.5119 17.1892 97.5485 17.226 97.5698 17.2718C97.5753 17.2828 97.5796 17.2943 97.5826 17.3062C97.5944 17.3512 97.5913 17.3987 97.5738 17.4418C97.5564 17.4849 97.5254 17.5211 97.4857 17.5451Z" fill="#3F3D56"/>
<path d="M81.7684 45.2563C81.7121 45.2563 81.658 45.2339 81.6179 45.1941C81.5779 45.1543 81.5551 45.1002 81.5546 45.0437L81.3408 21.655C81.3403 21.5981 81.3624 21.5433 81.4021 21.5027C81.4418 21.4621 81.496 21.439 81.5527 21.4385H81.5546C81.611 21.4385 81.6651 21.4608 81.7051 21.5006C81.7452 21.5404 81.7679 21.5945 81.7684 21.6511L81.9822 45.0397C81.9827 45.0966 81.9607 45.1514 81.921 45.192C81.8812 45.2326 81.8271 45.2557 81.7704 45.2563H81.7684Z" fill="#3F3D56"/>
<path d="M90.2293 42.4109L87.9872 43.0189L87.0422 19.9421L62.9297 15.127C62.9061 15.1228 62.8827 15.1171 62.8599 15.1098C62.6746 15.0569 62.5128 14.9424 62.4009 14.7851L65.6934 13.9297L66.6612 14.1228L89.5408 18.6904C89.6611 18.7142 89.7749 18.7639 89.8743 18.836C89.9737 18.9081 90.0564 19.0009 90.1167 19.1081C90.1879 19.2325 90.2278 42.2621 90.2293 42.4109Z" fill="#3F3D56"/>
<path d="M89.2247 29.254C89.3394 29.3524 89.4461 29.4598 89.544 29.5751L102.975 28.0008L104.282 24.9756L109.088 26.3574L107.294 31.9384C107.15 32.3893 106.863 32.7808 106.477 33.0542C106.092 33.3276 105.628 33.4681 105.156 33.4547L89.7781 33.0159C89.4612 33.5049 89.0034 33.8854 88.4657 34.1069C87.928 34.3284 87.3358 34.3804 86.768 34.2559C86.2001 34.1314 85.6835 33.8363 85.2868 33.4099C84.8901 32.9836 84.6322 32.4461 84.5473 31.869C84.4624 31.2919 84.5546 30.7026 84.8116 30.1793C85.0686 29.6561 85.4782 29.2238 85.986 28.9399C86.4937 28.6561 87.0756 28.5341 87.6541 28.5902C88.2327 28.6463 88.7805 28.8778 89.2247 29.254Z" fill="#FFB6B6"/>
<path d="M102.66 27.3023C102.587 27.1413 102.55 26.9663 102.55 26.7893C102.551 26.6124 102.589 26.4376 102.663 26.2769L105.244 20.6651C105.497 19.7961 106.084 19.0635 106.875 18.6279C107.666 18.1923 108.596 18.0892 109.463 18.3413C110.329 18.5934 111.061 19.18 111.497 19.9727C111.933 20.7653 112.039 21.6991 111.79 22.5694L110.94 28.7112C110.916 28.8865 110.854 29.0545 110.759 29.2037C110.664 29.3529 110.539 29.4799 110.391 29.5759C110.242 29.672 110.075 29.7349 109.901 29.7604C109.727 29.7858 109.549 29.7733 109.379 29.7235L103.432 27.9744C103.263 27.9247 103.107 27.8389 102.973 27.7229C102.84 27.607 102.733 27.4635 102.66 27.3023Z" fill="#3F3D56"/>
<path d="M147.715 116.932H0.284986C0.209585 116.932 0.137346 116.902 0.0841067 116.848C0.0308676 116.794 0.000976562 116.722 0.000976562 116.646C0.000976562 116.571 0.0308676 116.498 0.0841067 116.444C0.137346 116.391 0.209585 116.361 0.284986 116.36H147.715C147.791 116.36 147.863 116.39 147.917 116.444C147.97 116.498 148 116.57 148 116.646C148 116.722 147.97 116.795 147.917 116.848C147.863 116.902 147.791 116.932 147.715 116.932Z" fill="#CACACA"/>
<path d="M36.8 77.9591C36.8 82.433 33.1867 86.0568 28.7332 86.0568C24.2798 86.0568 20.6665 82.433 20.6665 77.9591C20.6665 73.4851 24.2798 69.8613 28.7332 69.8613C33.1867 69.8613 36.8 73.4851 36.8 77.9591Z" fill="#3881E6" stroke="#DBE2EC"/>
<path d="M27.5649 82.4335C27.4169 82.4335 27.271 82.3989 27.1387 82.3325C27.0064 82.2661 26.8913 82.1697 26.8026 82.0509L24.4655 78.9234C24.3138 78.7205 24.2487 78.4654 24.2845 78.2143C24.3202 77.9632 24.4539 77.7367 24.6561 77.5845C24.8583 77.4323 25.1124 77.367 25.3626 77.4029C25.6128 77.4387 25.8385 77.5729 25.9902 77.7758L27.5192 79.8217L31.4463 73.9098C31.5156 73.8049 31.6047 73.7147 31.7088 73.6444C31.8128 73.5742 31.9296 73.5252 32.0525 73.5003C32.1754 73.4754 32.302 73.4752 32.4251 73.4995C32.5481 73.5238 32.6651 73.5723 32.7695 73.6421C32.8738 73.7119 32.9634 73.8017 33.0331 73.9063C33.1028 74.0109 33.1512 74.1283 33.1756 74.2517C33.2 74.3752 33.1999 74.5022 33.1753 74.6256C33.1506 74.749 33.102 74.8663 33.0321 74.9708L28.3579 82.0076C28.2733 82.1349 28.1596 82.2399 28.0262 82.314C27.8929 82.388 27.7437 82.4289 27.5914 82.4332C27.5826 82.4334 27.5737 82.4335 27.5649 82.4335Z" fill="white"/>
<path d="M65.2105 32.2915C65.1839 32.2915 65.1573 32.2885 65.1313 32.2826L57.7155 30.602C57.6227 30.5809 57.5421 30.5237 57.4914 30.443C57.4407 30.3623 57.4239 30.2646 57.4448 30.1715C57.4658 30.0784 57.5226 29.9975 57.603 29.9465C57.6834 29.8954 57.7806 29.8785 57.8734 29.8993L65.2892 31.5799C65.3753 31.5995 65.4512 31.6502 65.5025 31.7223C65.5537 31.7945 65.5766 31.883 65.5669 31.9711C65.5571 32.0591 65.5154 32.1405 65.4496 32.1996C65.3839 32.2587 65.2988 32.2914 65.2105 32.2915Z" fill="white"/>
<path d="M36.6697 99.933C36.6436 99.9385 36.617 99.941 36.5904 99.9405L28.9889 99.8121C28.8939 99.8103 28.8034 99.7707 28.7374 99.7021C28.6714 99.6335 28.6352 99.5414 28.6368 99.446C28.6383 99.3506 28.6776 99.2597 28.7458 99.1933C28.8141 99.1269 28.9058 99.0904 29.0008 99.0918L36.6023 99.2203C36.6905 99.2218 36.7751 99.2559 36.8399 99.3161C36.9047 99.3762 36.9451 99.4582 36.9535 99.5464C36.9618 99.6346 36.9375 99.7228 36.8852 99.7941C36.8328 99.8654 36.7561 99.9149 36.6697 99.933Z" fill="#E6E6E6"/>
<path d="M39.3011 104.014C39.275 104.02 39.2484 104.022 39.2217 104.022L31.6202 103.893C31.5252 103.891 31.4348 103.852 31.3687 103.783C31.3027 103.715 31.2665 103.622 31.2681 103.527C31.2697 103.432 31.3089 103.341 31.3772 103.274C31.4454 103.208 31.5371 103.172 31.6322 103.173L39.2336 103.301C39.3219 103.303 39.4065 103.337 39.4713 103.397C39.5361 103.457 39.5765 103.539 39.5848 103.627C39.5932 103.716 39.5689 103.804 39.5165 103.875C39.4642 103.946 39.3875 103.996 39.3011 104.014Z" fill="#E6E6E6"/>
</g>
<defs>
<clipPath id="clip0_279_4560">
<rect width="148" height="117" fill="white"/>
</clipPath>
</defs>
</svg>
