<svg width="168" height="41" viewBox="0 0 168 41" fill="none" xmlns="http://www.w3.org/2000/svg">
<path d="M8.99029 16.9661C10.5098 16.9661 11.8746 17.1674 13.0845 17.5699C14.2944 17.9727 15.4482 18.5765 16.5455 19.3819L14.8995 21.7174C13.8865 21.1001 12.9155 20.6436 11.9871 20.3483C11.0867 20.053 10.1299 19.9055 9.11692 19.9055C7.85067 19.9055 6.85177 20.1605 6.12015 20.6706C5.38856 21.1536 5.02273 21.8247 5.02273 22.6838C5.02273 23.5429 5.36041 24.214 6.03575 24.6971C6.73921 25.1804 7.99138 25.6502 9.79223 26.1065C12.2684 26.6971 14.1116 27.5024 15.3215 28.5223C16.5597 29.5424 17.1786 30.9383 17.1786 32.71C17.1786 34.8038 16.3204 36.4013 14.6039 37.5016C12.9155 38.6022 10.8475 39.1526 8.39938 39.1526C5.02274 39.1526 2.22295 38.2265 0 36.3742L2.06819 34.1195C3.95347 35.4884 6.03574 36.173 8.31497 36.173C9.77818 36.173 10.9318 35.8912 11.7761 35.3274C12.6484 34.7368 13.0845 33.9449 13.0845 32.9516C13.0845 32.227 12.9296 31.6497 12.6202 31.2201C12.3107 30.7638 11.7761 30.3748 11.0162 30.0525C10.2565 29.7034 9.14504 29.3411 7.68184 28.9653C5.3182 28.3748 3.60176 27.5829 2.53247 26.5895C1.49136 25.5964 0.97078 24.3348 0.97078 22.8046C0.97078 21.7039 1.30845 20.7108 1.98376 19.825C2.68723 18.9124 3.64396 18.2143 4.8539 17.7312C6.09202 17.2212 7.4708 16.9661 8.99029 16.9661Z" fill="#002B49"/>
<path d="M37 27.4351C37 28.0527 36.9716 28.6836 36.9152 29.3276H22.6583C22.8279 31.6632 23.4503 33.3811 24.5252 34.4818C25.6002 35.5824 26.9861 36.1327 28.6834 36.1327C29.7585 36.1327 30.7485 35.9849 31.6538 35.6896C32.559 35.3944 33.5065 34.9248 34.4965 34.2805L36.1938 36.495C33.8176 38.2667 31.2153 39.1526 28.3865 39.1526C25.275 39.1526 22.842 38.1862 21.0883 36.2535C19.3627 34.3207 18.5 31.6632 18.5 28.2807C18.5 26.0795 18.8678 24.1335 19.6032 22.4423C20.3669 20.7243 21.442 19.3819 22.8279 18.4155C24.2424 17.4492 25.8972 16.9661 27.7924 16.9661C30.7627 16.9661 33.0397 17.8922 34.6238 19.7445C36.2079 21.5967 37 24.1602 37 27.4351ZM33.1389 26.348C33.1389 24.2543 32.7002 22.6571 31.8233 21.5564C30.9465 20.4558 29.6312 19.9055 27.8772 19.9055C24.6808 19.9055 22.941 22.1335 22.6583 26.5895H33.1389V26.348Z" fill="#002B49"/>
<path d="M44.4088 39.1526C42.9357 39.1526 41.7658 38.7345 40.8994 37.898C40.0617 37.0338 39.6429 35.8348 39.6429 34.3014V13.4605L43.6289 11.7458V34.2178C43.6289 34.8311 43.73 35.2773 43.9321 35.5559C44.1632 35.8348 44.5388 35.9743 45.0586 35.9743C45.6076 35.9743 46.0984 35.8907 46.5316 35.7234L47.5715 38.3997C46.6185 38.9017 45.5642 39.1526 44.4088 39.1526Z" fill="#002B49"/>
<path d="M52.4161 39.1525C50.9799 39.1525 49.8393 38.7416 48.9945 37.9195C48.1777 37.0701 47.7694 35.8916 47.7694 34.3844L47.5715 9.88576L51.6558 7.83051V34.3022C51.6558 34.9051 51.7543 35.3436 51.9517 35.6175C52.177 35.8916 52.5429 36.0287 53.05 36.0287C53.585 36.0287 54.0639 35.9465 54.4862 35.7821L55.5001 38.4126C54.5707 38.906 53.5427 39.1525 52.4161 39.1525Z" fill="#002B49"/>
<path d="M74 27.4351C74 28.0527 73.9696 28.6836 73.9089 29.3276H58.6338C58.8158 31.6632 59.4825 33.3811 60.6343 34.4818C61.7859 35.5824 63.2711 36.1327 65.0895 36.1327C66.2411 36.1327 67.3018 35.9849 68.2717 35.6896C69.2415 35.3944 70.257 34.9248 71.3177 34.2805L73.1362 36.495C70.5903 38.2667 67.8019 39.1526 64.7711 39.1526C61.4374 39.1526 58.831 38.1862 56.9518 36.2535C55.1032 34.3207 54.1786 31.6632 54.1786 28.2807C54.1786 26.0795 54.5727 24.1335 55.3605 22.4423C56.1791 20.7243 57.3306 19.3819 58.8158 18.4155C60.3311 17.4492 62.104 16.9661 64.1349 16.9661C67.317 16.9661 69.7569 17.8922 71.4541 19.7445C73.1514 21.5967 74 24.1602 74 27.4351ZM69.8629 26.348C69.8629 24.2543 69.3932 22.6571 68.4537 21.5564C67.5139 20.4558 66.1047 19.9055 64.2257 19.9055C60.8008 19.9055 58.937 22.1335 58.6338 26.5895H69.8629V26.348Z" fill="#002B49"/>
<path d="M84.714 17.7071C85.6035 17.7071 87.5829 17.7071 88.5358 17.7071L88.0581 20.1159C87.2638 20.1159 86.5274 20.1159 85.8287 20.1159C84.2719 20.1159 82.8983 20.6707 81.9454 21.6586C80.9922 22.6465 80.2456 24.1834 79.7055 26.2688V39.1526H75.3215V16.9661H79.086L79.515 21.3706C79.8979 20.4411 80.3906 19.7726 80.9571 19.2161C81.7865 18.4015 82.9053 17.8734 84.1219 17.7448C84.3465 17.7209 84.5522 17.7071 84.714 17.7071Z" fill="#002B49"/>
<path fill-rule="evenodd" clip-rule="evenodd" d="M144.7 20.4156H135.363V36.9127C135.363 37.3771 135.51 37.828 135.805 38.2651C136.114 38.7433 136.489 38.9823 136.932 38.9823C138.931 38.9823 139.931 36.8784 139.931 32.6706L143.975 35.0273C142.433 38.511 140.045 40.246 136.812 40.2325C134.933 40.2187 133.471 39.3445 132.425 37.6095C131.968 36.858 131.74 36.1064 131.74 35.3552V20.4156H127.997H127.535H122.504V24.4527C123.134 24.603 123.59 24.7876 123.872 25.0061V27.4242C122.276 26.8641 120.612 26.584 118.882 26.584C117.634 26.584 116.426 26.7959 115.259 27.2194C113.703 27.7795 112.919 28.5788 112.905 29.6171C112.878 30.71 114.401 31.2565 117.473 31.2565C117.54 31.2565 117.976 31.2361 118.781 31.1949L119.988 31.1336V33.019C118.164 33.0734 117.024 33.1215 116.567 33.1624C113.361 33.4491 111.758 34.3918 111.758 35.9904C111.758 36.8784 112.315 37.5752 113.428 38.0808C114.3 38.477 115.239 38.6751 116.246 38.6751C120.606 38.6751 124.134 36.7077 126.83 32.7731V37.9579C124.523 39.4467 121.793 40.1913 118.64 40.1913C115.192 40.1913 112.214 39.3785 109.705 37.7528C108.484 36.9605 107.874 36.0517 107.874 35.0273C107.874 34.0299 108.304 33.1624 109.162 32.4247C109.685 31.9738 110.55 31.4546 111.758 30.867L110.43 30.0884C109.638 29.624 109.242 29.0023 109.242 28.2235C109.242 26.5293 110.497 25.3133 113.006 24.5757C114.911 24.0156 117.05 23.7355 119.425 23.7355V20.4156H107.009H106.526H104.815V28.1826C104.024 27.7043 102.884 27.2946 101.395 26.9528C99.9992 26.6249 98.7918 26.461 97.7723 26.461C95.3172 26.461 93.2579 26.905 91.5946 27.793C90.6554 28.2986 90.186 28.9611 90.186 29.7809C90.186 30.8739 90.7492 31.4204 91.8764 31.4204C92.5605 31.4204 93.4526 31.2154 94.5527 30.8056C95.2636 30.5459 96.1758 30.2183 97.2894 29.8221C97.7588 29.6579 98.5906 29.5762 99.7848 29.5762C102.106 29.5762 103.836 30.3069 104.977 31.7688C105.527 32.4656 105.802 33.2853 105.802 34.228C105.802 36.4001 104.46 38.1079 101.777 39.3511C100.867 39.7753 99.9933 40.0491 99.1551 40.1724C98.9798 40.1922 98.8103 40.2115 98.6427 40.2292C98.6277 40.2304 98.6124 40.2313 98.5974 40.2325C98.5974 40.2325 98.598 40.2328 98.5991 40.2337C97.9923 40.2977 97.4076 40.3449 96.6596 40.3543C96.4684 40.3329 96.2263 40.3197 95.921 40.3143C93.4391 40.246 91.5275 39.7885 90.186 38.9414C89.3406 38.4085 88.9182 37.6777 88.9182 36.7485C88.9182 35.6011 89.5889 35.0273 90.9304 35.0273C91.4269 35.0273 92.4599 35.4235 94.0294 36.2159C95.6125 36.9944 96.9137 37.384 97.9332 37.384C99.9725 37.384 101.884 36.8922 103.669 35.9083C104.54 35.4301 104.977 34.8427 104.977 34.1459C104.977 33.1076 104.172 32.5885 102.562 32.5885C102.065 32.5885 100.462 32.9573 97.7523 33.695C96.1558 34.1324 95.1766 34.3509 94.8142 34.3509C92.6811 34.3509 90.9237 33.3262 89.5418 31.277C88.8712 30.2934 88.5359 29.2344 88.5359 28.1005C88.5223 25.7916 90.0718 24.2342 93.1841 23.428C94.4586 23.1003 95.6595 22.9362 96.7864 22.9362C98.0741 22.9362 99.8986 23.2572 102.26 23.8993V20.4156H88.7123L89.1535 17.8906L107.009 17.9564H127.535L131.74 17.89V3.91528L135.164 7.70606V17.9564H144.7H145.545H167.821V20.4156H150.978V33.5516C150.978 34.4261 151.159 35.3279 151.522 36.2567C152.259 38.156 153.48 39.1053 155.184 39.1053C157.478 39.1053 159.222 38.1286 160.416 36.1747C161.342 34.672 161.805 33.2579 161.805 31.9326V23.7764H165.89V40.4577C165.568 40.2662 164.964 39.9725 164.079 39.5763L161.764 38.5311V37.6708C160.181 38.8458 158.826 39.5904 157.699 39.9046C157.015 40.0957 156.204 40.1913 155.265 40.1913C152.286 40.1913 149.959 38.8594 148.282 36.1954C147.517 34.9795 147.135 33.6541 147.135 32.2197V20.4156H145.545H144.7Z" fill="#3881E6"/>
<path d="M54.1787 0L47.9973 2.57528L53.2841 6.72437L54.1787 0ZM38.5009 11.7458C41.2774 11.3027 46.8944 9.29139 51.4079 4.59614L50.5796 3.77515C46.2666 8.26226 40.8903 10.1747 38.3215 10.5846L38.5009 11.7458Z" fill="#3881E6"/>
</svg>
