<svg width="20" height="20" viewBox="0 0 20 20" fill="none" xmlns="http://www.w3.org/2000/svg">
<path d="M7.5 2.5H3.33333C2.8731 2.5 2.5 2.8731 2.5 3.33333V7.5C2.5 7.96024 2.8731 8.33333 3.33333 8.33333H7.5C7.96024 8.33333 8.33333 7.96024 8.33333 7.5V3.33333C8.33333 2.8731 7.96024 2.5 7.5 2.5Z" stroke="#3881E6" stroke-width="1.66667" stroke-linecap="round" stroke-linejoin="round"/>
<path d="M16.667 2.5H12.5003C12.0401 2.5 11.667 2.8731 11.667 3.33333V7.5C11.667 7.96024 12.0401 8.33333 12.5003 8.33333H16.667C17.1272 8.33333 17.5003 7.96024 17.5003 7.5V3.33333C17.5003 2.8731 17.1272 2.5 16.667 2.5Z" stroke="#3881E6" stroke-width="1.66667" stroke-linecap="round" stroke-linejoin="round"/>
<path d="M16.667 11.6665H12.5003C12.0401 11.6665 11.667 12.0396 11.667 12.4998V16.6665C11.667 17.1267 12.0401 17.4998 12.5003 17.4998H16.667C17.1272 17.4998 17.5003 17.1267 17.5003 16.6665V12.4998C17.5003 12.0396 17.1272 11.6665 16.667 11.6665Z" stroke="#3881E6" stroke-width="1.66667" stroke-linecap="round" stroke-linejoin="round"/>
<path d="M7.5 11.6665H3.33333C2.8731 11.6665 2.5 12.0396 2.5 12.4998V16.6665C2.5 17.1267 2.8731 17.4998 3.33333 17.4998H7.5C7.96024 17.4998 8.33333 17.1267 8.33333 16.6665V12.4998C8.33333 12.0396 7.96024 11.6665 7.5 11.6665Z" stroke="#3881E6" stroke-width="1.66667" stroke-linecap="round" stroke-linejoin="round"/>
</svg>
