<svg width="41" height="21" viewBox="0 0 41 21" fill="none" xmlns="http://www.w3.org/2000/svg">
<path d="M40 7C40 7 37.1357 7.27145 36.5 6C36 5.00003 35.5 4.50003 35 4.5C34.5 4.49997 34.2692 5.69233 33.5 6C32.1193 6.55228 31.3354 3.96584 30 4.5C29.2308 4.80767 29.2378 5.6232 28.5 6C26.1348 7.20799 27 0.5 24.5 0.5C22.1615 0.5 24 7 20 9C19 9.5 18.0689 8.98209 17 9.5C14.7982 10.5668 16.3674 14.3825 14 15C12.4419 15.4064 11.5954 13.7824 10 14C8.95812 14.1421 8.55112 15.0291 7.5 15C6.09248 14.9611 5.89718 13.1746 4.5 13C2.76701 12.7834 0.5 15 0.5 15" stroke="#377E36" stroke-linecap="round"/>
<path d="M36.0443 5.63415C36.672 6.9366 40.5 7 40.5 7V21H0V15C0 15 2.73831 12.583 4.44937 12.8049C5.82887 12.9838 6.02169 14.8138 7.41139 14.8537C8.4492 14.8834 8.85106 13.9748 9.87975 13.8293C11.455 13.6064 12.2908 15.2699 13.8291 14.8537C16.1666 14.2211 14.6172 10.3124 16.7911 9.21951C17.8465 8.68897 18.7658 9.21951 19.7532 8.70732C23.7025 6.65854 21.8873 2.83109e-10 24.1962 0C26.6646 -3.02659e-10 25.8103 6.8716 28.1456 5.63415C28.874 5.24815 28.8671 4.41273 29.6266 4.09756C30.9451 3.55037 31.719 6.1999 33.0823 5.63415C33.8417 5.31897 34.0696 4.09753 34.5633 4.09756C35.057 4.0976 35.5506 4.60979 36.0443 5.63415Z" fill="url(#paint0_linear_157_4101)"/>
<defs>
<linearGradient id="paint0_linear_157_4101" x1="20" y1="0" x2="20" y2="21" gradientUnits="userSpaceOnUse">
<stop stop-color="#377E36" stop-opacity="0.65"/>
<stop offset="1" stop-color="#377E36" stop-opacity="0"/>
</linearGradient>
</defs>
</svg>
