<svg width="41" height="24" viewBox="0 0 41 24" fill="none" xmlns="http://www.w3.org/2000/svg">
<path d="M40.5 4.25006C40.5 4.25006 38.5768 4.71156 37.5 4.25006C36.4847 3.81495 36 2.25015 35.5 2.25006C35 2.24997 34.5978 4.12808 33.5 4.25006C32.2574 4.38813 32 0.75 31 0.75C30 0.75 30.0831 4.03343 29 4.25006C27.6193 4.5262 27 1.25012 26 2.25006C25 3.25 21.3391 15.4153 20 15.7501C18.6609 16.0848 18.5 14.7501 17.5 15.2501C16.5 15.75 17 20.25 15.5 20.7501C14 21.2501 13.5805 20.7432 12.5 20.2501C11.6118 19.8447 11.4763 18.7427 10.5 18.7501C9.24975 18.7595 9.72324 20.9914 8.5 21.2501C7.12241 21.5414 6.87785 19.5401 5.5 19.2501C3.44207 18.8168 0.5 21.2501 0.5 21.2501" stroke="#EA973D" stroke-linecap="round"/>
<path d="M37.925 4.25006C39.0288 4.71156 41 4.25006 41 4.25006V23.75H0V21.2501C0 21.2501 3.01562 18.8168 5.125 19.2501C6.5373 19.5401 6.78797 21.5414 8.2 21.2501C9.45382 20.9914 8.96849 18.7595 10.25 18.7501C11.2507 18.7427 11.3896 19.8447 12.3 20.2501C13.4075 20.7432 13.8375 21.2501 15.375 20.7501C16.9125 20.25 16.4 15.75 17.425 15.2501C18.45 14.7501 18.6149 16.0848 19.9875 15.7501C21.3601 15.4153 25.1125 3.25 26.1375 2.25006C27.1625 1.25012 27.7973 4.5262 29.2125 4.25006C30.3227 4.03343 30.2375 0.75 31.2625 0.75C32.2875 0.75 32.5513 4.38813 33.825 4.25006C34.9503 4.12808 35.3625 2.24997 35.875 2.25006C36.3875 2.25015 36.8844 3.81495 37.925 4.25006Z" fill="url(#paint0_linear_48_3790)"/>
<defs>
<linearGradient id="paint0_linear_48_3790" x1="20" y1="5.75" x2="20" y2="25.25" gradientUnits="userSpaceOnUse">
<stop stop-color="#EA973D" stop-opacity="0.31"/>
<stop offset="0.929726" stop-color="#EA973D" stop-opacity="0.01"/>
</linearGradient>
</defs>
</svg>
