<svg width="24" height="24" viewBox="0 0 24 24" fill="none" xmlns="http://www.w3.org/2000/svg">
<path d="M3.9995 14C3.81027 14.0006 3.62474 13.9476 3.46446 13.847C3.30418 13.7464 3.17574 13.6023 3.09405 13.4316C3.01237 13.2609 2.9808 13.0706 3.003 12.8826C3.02521 12.6947 3.10028 12.5169 3.2195 12.37L13.1195 2.16998C13.1938 2.08426 13.295 2.02634 13.4065 2.00571C13.518 1.98509 13.6332 2.00299 13.7332 2.05648C13.8332 2.10998 13.9121 2.19588 13.9568 2.30009C14.0016 2.4043 14.0096 2.52063 13.9795 2.62998L12.0595 8.64998C12.0029 8.8015 11.9839 8.9645 12.0041 9.12499C12.0243 9.28547 12.0832 9.43866 12.1756 9.57141C12.268 9.70415 12.3913 9.81249 12.5348 9.88714C12.6783 9.96179 12.8377 10.0005 12.9995 9.99998H19.9995C20.1887 9.99933 20.3743 10.0524 20.5345 10.153C20.6948 10.2536 20.8233 10.3976 20.905 10.5683C20.9866 10.739 21.0182 10.9294 20.996 11.1173C20.9738 11.3053 20.8987 11.483 20.7795 11.63L10.8795 21.83C10.8052 21.9157 10.704 21.9736 10.5925 21.9942C10.481 22.0149 10.3658 21.997 10.2658 21.9435C10.1658 21.89 10.0869 21.8041 10.0422 21.6999C9.99742 21.5957 9.98943 21.4793 10.0195 21.37L11.9395 15.35C11.9961 15.1985 12.0151 15.0355 11.9949 14.875C11.9747 14.7145 11.9158 14.5613 11.8234 14.4286C11.731 14.2958 11.6077 14.1875 11.4642 14.1128C11.3207 14.0382 11.1613 13.9995 10.9995 14H3.9995Z" fill="#1CAA6E"/>
</svg>
